<svg width="47" height="41" viewBox="0 0 47 41" fill="none" xmlns="http://www.w3.org/2000/svg">
<path d="M34.8096 23.6408L41.1346 40.0398H38.0526L36.4886 35.6928H30.0026L28.3926 40.0398H25.4256L31.7506 23.6408H34.8096ZM35.7296 33.5308L33.2916 26.6308L30.7386 33.5308H35.7296ZM45.0214 23.5948V26.1708H42.3994V23.5948H45.0214ZM45.0214 28.1718V40.0398H42.3994V28.1718H45.0214Z" fill="#0B0C11"/>
<path d="M17.3028 40H0C0 17.8117 17.8117 0 39.7964 0V17.3028C27.3791 17.3028 17.3028 27.3791 17.3028 40Z" fill="#0073E6"/>
<path d="M13.3381 0.000121173L23.5982 0.00012207C23.5982 13.1572 13.0364 23.719 4.95911e-05 23.719L5.0488e-05 13.4589C7.36316 13.4589 13.3381 7.48394 13.3381 0.000121173Z" fill="#EF5E82"/>
</svg>
